<?xml version="1.0" encoding="UTF-8" standalone="no"?>
<!DOCTYPE svg PUBLIC "-//W3C//DTD SVG 1.1//EN" "http://www.w3.org/Graphics/SVG/1.1/DTD/svg11.dtd">
<svg width="100%" height="100%" viewBox="0 0 2481 2481" version="1.1" xmlns="http://www.w3.org/2000/svg" xmlns:xlink="http://www.w3.org/1999/xlink" xml:space="preserve" xmlns:serif="http://www.serif.com/" style="fill-rule:evenodd;clip-rule:evenodd;stroke-linecap:round;stroke-linejoin:round;stroke-miterlimit:1.5;">
    <g transform="matrix(3.45738,0,0,3.52333,-3425.79,-6260.3)">
        <ellipse cx="1349.58" cy="2130.41" rx="338.201" ry="331.871" style="fill:rgb(1,0,0);stroke:black;stroke-width:16.71px;"/>
    </g>
    <g transform="matrix(3.45738,0,0,3.52333,-3425.79,-6260.3)">
        <ellipse cx="1349.58" cy="2130.41" rx="338.201" ry="331.871" style="fill:none;"/>
    </g>
    <g transform="matrix(1.30961,0,0,1.33459,-528.054,-1599.89)">
        <ellipse cx="1349.58" cy="2130.41" rx="338.201" ry="331.871" style="fill:none;stroke:white;stroke-width:37.82px;"/>
    </g>
    <g transform="matrix(1.08,0,0,0.809224,51.0633,-424.223)">
        <path d="M880.135,944.436C880.135,921.702 893.965,903.244 910.999,903.244C928.033,903.244 941.863,921.702 941.863,944.436C941.863,1036.49 887.537,1334.64 867.902,1531.61C863.192,1578.86 860.497,1619.87 861.542,1649.77C861.941,1661.19 861.669,1670.16 864.137,1675.09C872.559,1691.93 889.328,1704.86 906.817,1717.77C929.613,1734.6 954.228,1749.88 972.611,1765.36C987.017,1777.5 991.333,1802.95 982.243,1822.18C973.153,1841.41 954.077,1847.17 939.671,1835.04C918.277,1817.02 888.121,1799.42 862.831,1779C841.567,1761.83 823.533,1742.3 812.791,1720.82C807.337,1709.91 802.859,1693.33 800.935,1671.35C797.903,1636.7 800.453,1583.54 806.713,1520.74C825.991,1327.36 880.135,1034.81 880.135,944.436Z" style="fill:white;"/>
    </g>
    <g transform="matrix(1.08,0,0,1.07974,51.0633,-911.202)">
        <path d="M559.404,1580.91C556.059,1572.91 556.084,1563.55 560.262,1555.19C567.878,1539.95 586.432,1533.76 601.669,1541.38C603.363,1542.23 614.73,1548.23 619.304,1565.98C623.941,1583.97 637.179,1650.52 652.553,1697.42C657.5,1712.5 661.62,1725.37 666.746,1731.01C674.884,1739.96 695.706,1748.86 721.272,1759.31C794.097,1789.08 903.044,1820.57 946.429,1838.52C962.17,1845.03 969.663,1863.1 963.151,1878.85C956.639,1894.59 938.573,1902.09 922.832,1895.57C879.495,1877.64 770.665,1846.2 697.921,1816.47C661.087,1801.41 632.801,1785.45 621.075,1772.55C612.34,1762.94 602.328,1742.37 593.898,1716.66C578.072,1668.39 564.303,1599.91 559.53,1581.39C559.492,1581.24 559.448,1581.08 559.404,1580.91Z" style="fill:white;"/>
    </g>
    <g transform="matrix(1.08,0,0,1.07974,51.0633,-911.202)">
        <path d="M718.625,1890.85C788.715,1894.41 858.018,1899.31 928.234,1896.39C945.254,1895.68 959.647,1908.92 960.356,1925.95C961.065,1942.97 947.823,1957.37 930.803,1958.08C858.412,1961.09 786.961,1956.13 714.693,1952.47C713.567,1952.41 703.764,1951.4 699.32,1950.93C692.343,1952.75 684.703,1952.15 677.755,1948.67C662.519,1941.05 656.336,1922.49 663.956,1907.25C666.912,1901.34 672.221,1894.87 682.051,1891.31C685.087,1890.21 689.579,1889.17 695.074,1889C701.819,1888.78 716.441,1890.57 718.625,1890.85Z" style="fill:white;"/>
    </g>
    <g transform="matrix(1.08,0,0,0.781087,-79.1532,-328.169)">
        <ellipse cx="1224.48" cy="1882.48" rx="166.388" ry="226.673" style="fill:white;stroke:white;stroke-width:43.34px;"/>
    </g>
    <g transform="matrix(1.08,0,0,1.07974,-3.62761,-911.202)">
        <path d="M1125.25,1714.37L1112.1,1726.89C1110.91,1728.38 1109.8,1729.91 1108.9,1731.52C1108.25,1732.68 1107.31,1733.82 1107.8,1735.2C1112.05,1747.25 1105.72,1760.48 1093.68,1764.74C1081.63,1768.99 1068.4,1762.66 1064.14,1750.61C1057.11,1730.69 1064.06,1712.49 1076.74,1696.99C1078.05,1695.38 1096.7,1677.32 1100.91,1674.76C1106.89,1671.13 1111.93,1671.09 1114.5,1671.2C1124.46,1671.65 1130.6,1676.71 1134.26,1684.03C1139.75,1695 1135.69,1708.27 1125.25,1714.37ZM1103.62,1715.3C1099.11,1713.16 1095.26,1709.55 1092.86,1704.74C1095.26,1709.55 1098.83,1713.09 1103.62,1715.3Z" style="fill:white;"/>
    </g>
    <g transform="matrix(1.08,0,0,1.07974,-3.62761,-911.202)">
        <path d="M1202.88,1674.68C1203.55,1674.98 1204.17,1675.27 1204.49,1675.45C1223.18,1685.51 1235.66,1698.38 1241.66,1713.06C1248.08,1728.76 1248.02,1747.31 1237.18,1768.98C1231.47,1780.41 1217.55,1785.05 1206.12,1779.34C1194.7,1773.62 1190.06,1759.7 1195.77,1748.27C1199.24,1741.34 1200.87,1735.61 1198.81,1730.6C1196.35,1724.57 1190.22,1720.35 1182.55,1716.22C1182.88,1716.4 1183.81,1716.84 1183.81,1716.84C1183.81,1716.84 1174.44,1711.19 1173.56,1710.24C1166.52,1702.66 1166.66,1694.86 1167.93,1689.28C1168.97,1684.74 1171.25,1680.32 1175.72,1676.61C1177.68,1674.98 1181.98,1671.23 1190.72,1671.23C1195.18,1671.23 1199.35,1672.5 1202.88,1674.68ZM1211.21,1705.18C1210.08,1707.31 1208.63,1709.25 1206.92,1710.92C1208.81,1709.14 1210.19,1707.2 1211.21,1705.18ZM1199.16,1715.95C1196.55,1716.98 1193.7,1717.54 1190.72,1717.54C1194.47,1717.54 1197.21,1716.77 1199.16,1715.95Z" style="fill:white;"/>
    </g>
    <g transform="matrix(1.08,0,0,0.829994,-3.62761,-454.676)">
        <path d="M1316.6,886.562C1316.6,864.397 1330.43,846.401 1347.47,846.401C1364.5,846.401 1378.33,864.397 1378.33,886.562C1378.33,944.384 1394.26,1005.38 1401.46,1062.57C1414.89,1169.3 1424.71,1276.73 1434.82,1383.82C1444.72,1488.76 1449.08,1566.29 1431.99,1637.64C1414.55,1710.41 1375.3,1778.07 1293.54,1859.82C1280.04,1873.33 1260.64,1870.03 1250.27,1852.45C1239.88,1834.88 1242.42,1809.64 1255.93,1796.14C1323.86,1728.2 1358.57,1674.2 1373.06,1613.74C1387.88,1551.86 1382.13,1484.61 1373.55,1393.61C1363.55,1287.58 1353.84,1181.22 1340.54,1075.55C1332.82,1014.21 1316.6,948.587 1316.6,886.562Z" style="fill:white;"/>
    </g>
    <g transform="matrix(1.08,0,0,1.07974,-3.62761,-911.202)">
        <path d="M1297.06,1910.58C1282.89,1920.03 1263.71,1916.19 1254.26,1902.01C1244.82,1887.83 1248.65,1868.65 1262.83,1859.2C1283.82,1845.21 1311.21,1837.19 1339.48,1830.84C1362.07,1825.76 1385.25,1821.77 1404.12,1813.93C1497.88,1775.02 1494.73,1730.23 1524.63,1641.42C1542.85,1587.33 1564.53,1534.47 1582.57,1480.33C1587.96,1464.16 1605.46,1455.41 1621.62,1460.81C1637.78,1466.19 1646.52,1483.69 1641.13,1499.86C1623.06,1554.06 1601.36,1606.98 1583.13,1661.12C1546.03,1771.31 1544.1,1822.68 1427.78,1870.96C1405.91,1880.04 1379.19,1885.2 1353.01,1891.08C1332.52,1895.69 1312.28,1900.43 1297.06,1910.58Z" style="fill:white;"/>
    </g>
    <g transform="matrix(1.08,0,0,1.07974,-3.62761,-911.202)">
        <path d="M1299.65,1962.57C1291.07,1967.29 1280.38,1967.85 1270.96,1963.14C1255.73,1955.52 1249.55,1936.96 1257.16,1921.72C1259.73,1916.59 1264.49,1910.6 1272.69,1906.55C1277.97,1903.93 1288.63,1901.88 1291.55,1901.3C1391.36,1881.34 1499.23,1893.73 1600.53,1890.11C1617.55,1889.5 1631.87,1902.83 1632.47,1919.86C1633.08,1936.89 1619.75,1951.21 1602.73,1951.82C1504.69,1955.32 1400.25,1942.53 1303.65,1961.85C1303.11,1961.95 1301.22,1962.29 1299.65,1962.57Z" style="fill:white;"/>
    </g>
    <g transform="matrix(1.08,0,0,1.27031,-3.62761,-1286.49)">
        <path d="M1274.12,1953.79C1279.68,1958.13 1312.25,1983.5 1314.09,1984.82C1339.21,2002.82 1375.07,2022.86 1402.75,2047.7C1424.66,2067.36 1441.61,2089.9 1447.97,2115.85C1492.35,2296.77 1471.96,2503.88 1481.73,2689.37C1482.49,2703.84 1469.29,2716.11 1452.27,2716.76C1435.25,2717.41 1420.82,2706.18 1420.06,2691.72C1410.44,2508.95 1431.27,2304.83 1387.54,2126.56C1382.35,2105.38 1364.83,2088.48 1345.5,2073.44C1321.64,2054.88 1294.34,2039.3 1274.31,2024.94C1271.96,2023.27 1233.76,1994.4 1226.96,1987.83C1209.72,1971.16 1223.07,1954.91 1225.69,1952.29C1236.72,1941.26 1256.21,1939.92 1269.19,1949.3C1271.07,1950.66 1272.72,1952.17 1274.12,1953.79Z" style="fill:white;"/>
    </g>
    <g transform="matrix(1.60306,0,0,1.78425,-602.613,-2381.37)">
        <path d="M1097.77,2072.94C1093.35,2066.31 1095.75,2057.7 1103.13,2053.72C1110.52,2049.75 1120.1,2051.91 1124.53,2058.55C1129.1,2065.41 1139.83,2067.83 1150.21,2068.3C1161.02,2068.79 1172.36,2067.1 1177.96,2061.49C1183.72,2055.74 1193.59,2055.27 1199.99,2060.43C1206.39,2065.6 1206.92,2074.47 1201.17,2080.22C1190.36,2091.03 1169.48,2097.23 1148.64,2096.29C1127.38,2095.32 1107.14,2087 1097.77,2072.94Z" style="fill:white;"/>
    </g>
    <g transform="matrix(1.08,0,0,1.3526,-3.62761,-1452.49)">
        <path d="M1023.24,1964.84C1036.32,1956.12 1055.8,1957.52 1066.72,1967.96C1077.63,1978.4 1075.88,1993.96 1062.81,2002.67C1023.86,2028.64 975.214,2065.77 954.832,2108.68C916.661,2189.04 919.373,2486.82 922.105,2579.72C922.505,2593.31 909.004,2604.61 891.974,2604.93C874.944,2605.25 860.794,2594.47 860.394,2580.87C857.553,2484.28 857.424,2174.76 897.116,2091.2C921.218,2040.46 977.189,1995.54 1023.24,1964.84Z" style="fill:white;"/>
    </g>
</svg>
